<?xml version="1.0" standalone="no"?>
<!DOCTYPE svg PUBLIC "-//W3C//DTD SVG 20010904//EN"
 "http://www.w3.org/TR/2001/REC-SVG-20010904/DTD/svg10.dtd">
<svg version="1.0" xmlns="http://www.w3.org/2000/svg"
 width="466.000000pt" height="466.000000pt" viewBox="0 0 466.000000 466.000000"
 preserveAspectRatio="xMidYMid meet">
<metadata>
Created by potrace 1.11, written by Peter Selinger 2001-2013
</metadata>
<g transform="translate(0.000000,466.000000) scale(0.100000,-0.100000)"
fill="#000000" stroke="none">
<path d="M2626 4245 c-20 -21 -21 -39 0 -31 8 3 12 2 9 -4 -3 -6 -12 -10 -20
-10 -7 0 -27 -16 -45 -36 -17 -20 -34 -33 -37 -30 -4 4 -1 12 5 18 7 7 12 20
12 30 0 9 9 22 21 28 11 7 19 14 16 16 -7 7 -57 -18 -57 -29 0 -5 -9 -22 -20
-37 -11 -16 -20 -32 -19 -37 2 -8 0 -14 -34 -100 -19 -49 -18 -91 3 -78 5 3
10 -3 10 -14 0 -11 6 -26 13 -33 13 -15 37 -55 37 -63 0 -2 -10 -10 -22 -16
-20 -11 -21 -10 -10 3 10 13 8 18 -13 32 -14 9 -30 14 -35 11 -13 -8 -35 45
-45 103 -7 45 -27 56 -45 23 -15 -29 -12 -52 10 -96 11 -22 20 -49 20 -62 0
-12 4 -24 9 -27 5 -3 9 -16 9 -28 1 -13 3 -32 4 -43 2 -16 -4 -21 -27 -23 -35
-4 -61 -25 -68 -54 -6 -20 -5 -20 18 2 28 26 47 23 52 -8 2 -14 -2 -22 -12
-22 -18 0 -20 -20 -2 -20 6 0 1 -9 -13 -21 l-25 -20 39 7 c22 4 37 3 33 -2 -7
-12 15 -31 33 -29 8 2 22 -4 29 -13 13 -13 11 -14 -15 -6 -40 12 -188 11 -192
-1 -2 -5 5 -12 16 -15 15 -4 19 -13 18 -43 -2 -44 27 -76 51 -55 10 8 13 7 13
-3 0 -13 -205 -119 -229 -119 -6 0 -11 8 -11 18 0 14 2 15 10 2 8 -12 10 -9
10 12 0 15 5 30 10 33 19 12 11 69 -10 83 -27 17 -38 9 -46 -33 -3 -19 -10
-32 -15 -29 -5 3 -9 2 -10 -3 0 -4 -5 -44 -10 -88 -5 -44 -10 -91 -10 -105 0
-30 -24 -134 -45 -192 -8 -24 -21 -85 -29 -138 -24 -155 -31 -181 -58 -204
-14 -11 -31 -32 -37 -45 l-12 -24 52 7 c29 4 67 9 84 12 20 3 14 -1 -19 -13
-33 -12 -50 -24 -50 -35 0 -10 -6 -23 -13 -30 -17 -17 -15 -36 6 -41 12 -2 7
-8 -20 -22 -55 -27 -52 -33 27 -48 13 -2 8 -6 -18 -12 -26 -5 -37 -12 -33 -21
3 -8 -4 -18 -14 -24 -32 -17 -23 -29 18 -23 32 6 35 4 24 -9 -7 -8 -33 -23
-58 -33 -45 -17 -48 -29 -9 -37 14 -4 6 -9 -27 -17 -26 -7 -49 -20 -52 -28 -3
-8 -11 -11 -17 -8 -6 4 -13 -2 -16 -14 -5 -20 -7 -19 -34 10 -16 17 -29 35
-29 40 0 16 -29 10 -50 -11 -11 -11 -20 -28 -20 -37 0 -16 -2 -16 -10 -3 -9
13 -12 13 -24 -2 -7 -10 -18 -18 -25 -18 -6 0 -11 -5 -11 -11 0 -6 9 -8 20 -4
15 5 20 2 20 -10 0 -12 -5 -15 -16 -11 -26 10 -83 -23 -90 -53 -4 -14 -11 -31
-16 -38 -7 -8 -5 -18 6 -28 9 -9 16 -12 16 -6 0 17 31 41 53 41 23 0 87 51 87
69 0 6 18 11 40 11 21 0 45 6 52 13 7 8 20 12 30 9 13 -3 18 1 18 16 0 25 57
52 69 33 5 -8 18 -10 35 -5 21 5 25 3 20 -10 -6 -16 -24 -23 -74 -28 -14 -2
-30 -14 -39 -29 -12 -22 -12 -29 0 -54 18 -37 38 -44 31 -10 -2 14 -8 28 -13
31 -12 7 -11 34 1 34 10 0 51 -60 63 -91 9 -26 -37 -31 -62 -7 -20 18 -21 18
-37 -7 -9 -14 -21 -25 -26 -25 -5 0 -21 -9 -35 -20 -14 -11 -40 -22 -59 -26
-36 -7 -41 -13 -22 -32 9 -9 5 -12 -20 -12 -25 0 -32 4 -32 19 0 10 8 22 17
25 35 14 -6 27 -73 24 -60 -3 -69 -5 -69 -22 0 -22 -73 -48 -98 -35 -9 6 -29
2 -53 -11 -76 -38 -126 -47 -116 -21 4 11 0 13 -19 8 -13 -4 -58 -12 -99 -17
-131 -18 -139 -20 -176 -54 -19 -18 -52 -38 -71 -45 -32 -12 -37 -11 -45 3
-17 30 -56 38 -92 20 -107 -56 -150 -74 -181 -74 -42 0 -44 7 -9 35 35 28 24
59 -20 52 -17 -2 -38 -7 -47 -11 -10 -4 -25 2 -42 18 l-27 25 23 16 c12 8 39
20 61 26 21 6 40 18 43 27 5 19 112 73 243 123 87 33 175 83 200 115 13 16 13
17 -2 11 -14 -5 -16 -1 -11 27 3 19 1 36 -4 39 -5 3 -31 -14 -57 -39 -51 -48
-55 -49 -104 -35 -22 7 -32 6 -32 -2 0 -6 -6 -2 -14 9 -14 18 -16 18 -44 2
-17 -10 -37 -18 -46 -18 -9 0 -22 -11 -28 -25 -12 -26 -48 -35 -48 -12 0 8 -7
14 -15 14 -10 0 -12 -4 -5 -12 6 -7 0 -14 -20 -22 -18 -7 -30 -7 -30 -2 0 5 7
12 15 15 8 4 15 15 15 25 0 11 10 23 22 28 13 5 30 18 38 30 8 12 19 21 24 21
22 0 116 52 126 69 14 27 45 35 122 32 70 -3 134 13 142 36 3 7 1 13 -4 13
-38 0 25 44 77 53 18 4 52 16 75 27 54 26 78 26 78 0 0 -19 4 -20 40 -15 34 5
39 3 34 -10 -5 -13 -2 -15 22 -9 46 11 66 24 112 70 24 24 55 47 70 51 25 6
25 6 4 14 -36 13 -25 27 26 34 65 9 215 83 238 118 11 15 24 25 30 23 5 -2 20
2 33 8 20 11 21 14 6 26 -14 12 -13 16 16 42 17 16 53 40 79 53 35 18 51 33
59 56 6 18 9 34 6 37 -12 13 -305 -74 -328 -97 -8 -8 -6 -15 7 -24 15 -11 6
-12 -52 -9 -70 4 -104 -6 -224 -69 -10 -5 -25 -9 -33 -9 -9 0 -30 -7 -48 -17
-30 -15 -31 -15 -18 1 13 15 13 19 0 27 -17 11 -21 11 -38 0 -7 -5 -27 -5 -45
-1 -34 7 -97 -12 -77 -24 16 -10 14 -46 -4 -46 -9 0 -15 9 -15 25 0 14 -5 25
-11 25 -6 0 -9 -7 -5 -15 4 -13 2 -14 -14 -5 -11 6 -25 8 -30 5 -6 -3 -51 -10
-101 -16 -49 -5 -99 -14 -110 -20 -14 -7 -24 -7 -33 0 -8 7 -39 9 -82 5 -50
-4 -86 -1 -128 11 -43 13 -75 15 -126 10 -62 -6 -74 -4 -121 19 -28 15 -54 25
-56 22 -3 -2 -23 2 -45 10 -23 8 -64 18 -92 24 -28 5 -63 12 -79 16 l-27 6 0
-286 c0 -157 3 -286 8 -285 15 2 52 -14 52 -22 0 -5 11 -15 25 -21 33 -15 32
-32 -1 -24 -15 4 -39 10 -55 13 l-29 6 0 -156 c0 -132 2 -156 16 -161 22 -9
34 1 34 30 0 28 0 28 44 10 18 -8 45 -11 60 -9 14 3 33 0 41 -7 12 -10 19 -10
27 -2 14 14 48 16 48 2 0 -13 -38 -32 -50 -25 -6 4 -17 -1 -26 -9 -12 -12 -13
-20 -4 -36 9 -17 7 -22 -12 -29 -24 -9 -48 -4 -48 9 0 4 11 11 25 14 17 4 22
11 18 22 -8 22 -82 11 -105 -17 l-17 -20 -23 21 -23 21 -3 -867 c-2 -684 1
-870 10 -882 10 -13 10 -14 1 -8 -8 4 -13 1 -13 -8 0 -9 5 -16 10 -16 6 0 10
-5 10 -11 0 -5 -4 -7 -10 -4 -6 3 -7 -1 -4 -9 7 -19 16 -20 33 -4 8 8 11 8 8
2 -10 -17 617 -17 647 -1 11 7 37 24 56 38 19 15 58 34 86 42 42 12 191 81
269 124 11 7 56 28 100 49 44 20 87 42 95 49 8 6 44 24 80 39 96 41 130 56
185 81 28 13 68 29 90 36 53 16 148 61 210 99 86 52 158 82 205 86 25 1 35 0
22 -2 -23 -5 -23 -6 -6 -25 16 -18 16 -19 -9 -19 -15 0 -27 -4 -27 -9 0 -5 19
-7 42 -3 l42 5 -22 -28 c-31 -40 -28 -55 11 -55 22 0 47 11 75 32 49 38 45 47
-34 79 l-49 20 50 -7 c28 -3 59 -14 70 -24 26 -24 113 -70 134 -71 11 0 12 -2
3 -6 -7 -2 -37 6 -68 18 l-56 24 -28 -32 c-16 -18 -47 -41 -69 -53 -23 -11
-41 -27 -41 -34 0 -7 -7 -19 -15 -26 -14 -11 -13 -14 2 -25 14 -10 20 -9 32 6
20 22 96 28 130 10 31 -17 9 -33 -26 -20 -44 17 -89 11 -106 -14 -11 -15 -19
-18 -24 -11 -12 17 -63 24 -63 8 0 -7 10 -15 23 -17 20 -4 19 -4 -4 -6 -16 0
-29 5 -33 15 -4 10 -15 14 -33 12 -16 -2 -33 3 -38 10 -6 7 -25 14 -43 14 -18
1 -32 6 -32 12 0 6 -4 5 -9 -3 -6 -9 -16 -11 -27 -7 -16 6 -16 8 -4 16 11 7 7
10 -17 10 -48 0 -47 -13 3 -34 24 -10 44 -22 44 -27 0 -5 11 -14 25 -19 14 -5
25 -17 25 -25 0 -9 4 -14 9 -10 5 3 12 -4 16 -15 4 -11 16 -20 28 -21 14 -1
10 -4 -12 -9 -25 -6 -38 -4 -48 6 -8 8 -19 12 -24 9 -14 -9 -11 -25 6 -25 8 0
15 -7 15 -15 0 -19 -16 -19 -24 0 -3 8 -24 18 -46 21 -22 4 -43 11 -46 15 -3
5 -16 9 -30 9 -18 0 -24 -5 -24 -22 0 -20 6 -23 43 -26 89 -5 97 -9 97 -49 0
-38 34 -47 200 -49 142 -2 179 -7 308 -41 16 -4 22 -1 22 11 0 17 26 17 128 0
30 -5 42 -3 42 6 0 7 -8 10 -20 7 -10 -3 -19 -2 -18 2 2 22 -5 31 -24 32 -17
1 -19 2 -5 6 27 7 20 33 -13 44 -16 6 -30 15 -30 21 0 5 4 7 9 4 5 -3 14 0 20
8 8 10 5 16 -17 26 -15 7 -39 12 -54 11 -25 -2 -28 1 -28 28 0 17 5 31 10 31
6 0 10 6 10 14 0 8 6 17 13 19 8 4 7 6 -3 6 -21 1 -45 83 -35 119 4 15 9 48
12 75 5 45 15 58 28 37 3 -5 24 -14 46 -20 22 -6 56 -22 76 -35 20 -14 48 -25
63 -25 26 0 28 4 40 65 7 36 16 68 21 71 18 11 9 -106 -11 -146 -11 -22 -20
-53 -20 -70 0 -28 3 -30 36 -30 37 0 38 -12 4 -30 -15 -8 -18 -7 -14 3 3 8 -2
14 -11 14 -12 0 -14 -10 -10 -49 2 -27 0 -48 -5 -48 -6 0 -10 -10 -10 -21 0
-18 2 -19 15 -9 8 7 15 19 15 26 0 8 3 14 8 14 65 4 122 4 122 0 0 -3 -8 -6
-17 -7 -10 -1 -31 -7 -48 -14 l-30 -12 25 -7 c22 -6 18 -8 -27 -20 -40 -11
-53 -18 -53 -33 0 -15 -6 -18 -30 -15 -16 1 -28 -2 -27 -7 1 -6 15 -10 31 -10
24 0 31 -6 45 -42 13 -33 19 -40 32 -33 27 15 152 17 156 3 3 -7 9 -13 14 -13
6 0 7 4 4 10 -9 14 20 12 59 -4 31 -13 35 -13 39 4 3 11 -3 26 -14 36 -11 10
-17 24 -15 31 3 7 -8 29 -25 48 -17 19 -26 35 -20 35 6 0 11 -6 12 -12 0 -7 6
0 14 17 13 29 13 54 -1 108 -4 18 -2 27 6 27 6 0 73 -17 148 -38 75 -22 148
-39 162 -39 14 -1 63 -13 109 -27 47 -14 98 -26 114 -26 16 0 55 -11 86 -24
31 -14 68 -27 84 -30 15 -4 27 -11 27 -17 0 -6 11 -20 25 -31 13 -10 24 -22
23 -26 -2 -4 17 -25 40 -48 23 -22 42 -43 42 -46 0 -3 -9 -8 -20 -11 -11 -3
-20 -11 -20 -19 0 -11 2 -11 9 0 6 11 10 10 15 -3 5 -13 9 -15 19 -6 11 8 19
5 37 -14 l23 -25 404 0 403 0 0 895 c0 553 -4 895 -9 895 -6 0 -12 -4 -16 -9
-3 -6 -19 -16 -35 -25 -28 -14 -48 -14 -133 -1 -24 4 -27 2 -21 -19 5 -20 1
-24 -32 -29 -47 -8 -109 -71 -118 -122 -4 -19 -4 -39 -1 -44 3 -5 -5 -11 -17
-13 -15 -2 -24 -11 -26 -25 -2 -13 -8 -24 -13 -24 -5 -1 -15 -2 -21 -3 -7 -1
-18 5 -25 14 -9 12 -14 12 -24 3 -10 -10 -15 -9 -25 4 -10 15 -16 15 -39 5
-28 -13 -48 -5 -68 26 -11 17 -40 15 -95 -7 -113 -44 -156 -51 -166 -26 -7 19
-40 19 -69 1 -12 -7 -37 -14 -56 -14 -20 -1 -38 -7 -43 -16 -13 -23 -23 -20
-36 9 -14 31 -65 34 -96 6 -31 -28 -61 -34 -80 -16 -20 21 -20 17 1 -42 33
-91 20 -275 -22 -328 -15 -18 -15 -18 -2 10 8 17 20 63 26 103 19 124 -12 229
-98 327 -49 57 -63 64 -49 24 8 -24 13 -28 20 -17 7 10 8 8 4 -5 -3 -10 -6
-21 -6 -23 0 -3 -4 -3 -8 0 -4 2 -9 -6 -10 -19 -1 -13 3 -27 8 -30 6 -4 7 1 3
12 -3 10 -2 15 2 10 5 -4 15 5 22 20 12 26 12 26 7 3 -4 -14 -9 -31 -11 -38
-4 -8 1 -10 13 -6 18 5 18 5 2 -6 -20 -12 -23 -42 -8 -70 6 -11 6 -21 1 -25
-5 -3 -6 -17 -2 -33 5 -15 5 -36 1 -47 -7 -18 -8 -19 -15 -2 -10 23 -21 21
-30 -5 -4 -14 -8 -18 -12 -10 -7 19 -27 14 -42 -10 l-14 -22 -28 34 -29 34 0
-28 c0 -24 -2 -27 -15 -16 -8 7 -15 19 -15 26 0 8 -6 14 -12 14 -10 0 -10 2 0
9 11 7 11 9 -2 14 -9 4 -16 2 -16 -3 0 -18 -18 -10 -23 10 -4 17 -2 20 15 14
13 -4 18 -2 14 4 -5 9 16 24 39 26 5 1 14 16 19 34 13 47 -6 64 -57 52 -21 -4
-68 -8 -103 -9 -36 0 -69 -3 -74 -6 -14 -9 -207 -44 -244 -45 -10 0 2 -50 16
-67 6 -7 26 -13 44 -13 19 0 51 -9 71 -20 21 -11 57 -20 80 -20 28 0 43 -4 43
-12 0 -7 11 -98 24 -203 14 -104 22 -192 20 -194 -9 -10 -89 1 -96 12 -6 9
-10 9 -17 -2 -6 -10 -20 -12 -47 -7 -28 5 -35 4 -24 -3 13 -9 12 -11 -3 -11
-11 0 -21 9 -24 20 -6 24 -21 26 -29 5 -8 -19 -31 -19 -51 0 -8 8 -19 13 -24
10 -21 -13 -132 75 -116 92 4 3 7 1 7 -5 0 -7 4 -12 10 -12 15 0 7 23 -15 44
-16 15 -17 18 -3 13 15 -5 16 1 13 61 -4 67 -23 152 -37 162 -4 3 -9 19 -11
35 -2 17 -9 29 -15 28 -7 -2 -15 12 -20 30 -7 24 -5 41 10 70 11 22 17 41 15
43 -2 3 -17 -24 -33 -58 -25 -54 -29 -75 -29 -153 0 -49 4 -103 8 -119 l8 -30
-19 24 -19 24 -23 -22 c-29 -26 -45 -28 -35 -4 17 41 18 52 2 46 -20 -7 -28
19 -22 80 3 41 0 54 -22 82 -14 19 -21 34 -15 34 16 0 23 46 12 75 -8 22 -6
30 13 48 13 12 34 48 46 79 31 77 36 80 106 67 61 -11 105 -6 105 12 0 6 -18
52 -41 101 -22 50 -38 93 -35 96 4 3 6 0 6 -6 0 -7 14 -3 34 9 38 22 48 57 43
153 -2 49 -2 50 38 67 23 10 59 21 81 25 l41 6 6 -38 c4 -22 7 -56 7 -76 0
-21 4 -38 8 -38 16 0 -1 -65 -24 -93 -69 -82 -42 -199 56 -246 43 -20 131 -12
161 15 10 9 19 13 19 8 0 -5 11 12 25 38 40 75 31 142 -25 198 -30 30 -33 37
-16 33 15 -4 11 1 -11 16 -18 11 -33 26 -33 32 0 8 7 6 18 -4 30 -27 74 -21
123 16 24 19 54 39 67 46 28 15 28 21 -3 127 -14 48 -23 89 -20 92 3 3 5 -1 6
-9 1 -16 27 97 28 121 1 9 -14 20 -35 26 l-36 12 5 -32 c3 -17 8 -42 11 -56 5
-21 4 -20 -8 5 -9 17 -15 44 -16 62 0 28 3 32 31 35 47 4 57 28 38 85 -10 29
-14 67 -12 95 5 44 7 48 41 59 45 15 129 68 160 102 27 29 41 81 42 149 0 35
-6 54 -25 76 -14 17 -23 37 -19 45 6 16 -14 63 -23 54 -2 -3 1 -15 7 -27 6
-12 10 -24 8 -26 -5 -5 -49 54 -52 69 -1 7 -10 26 -19 44 -9 18 -17 36 -17 41
0 15 38 21 44 8 3 -6 5 -2 3 9 -1 12 -11 21 -25 23 -12 2 -27 12 -32 23 -12
22 -7 24 21 9 27 -15 25 -5 -16 99 -19 48 -35 92 -35 96 0 14 -50 106 -66 122
-11 12 -39 18 -93 20 -115 6 -111 4 -111 35 0 25 3 28 34 28 51 0 147 -39 179
-72 19 -20 27 -24 27 -13 0 9 -11 27 -25 41 -14 14 -25 28 -25 32 0 10 -57 72
-66 72 -4 0 -13 8 -20 18 -9 11 -16 13 -21 7 -5 -6 -27 -17 -51 -25 -35 -11
-47 -11 -70 0 -15 7 -32 13 -38 12 -14 -3 -16 91 -3 125 8 23 8 24 -6 13 -22
-18 -26 -9 -14 34 10 34 24 42 24 13 0 -23 20 -20 35 6 13 23 12 30 -4 63 -10
21 -19 61 -22 90 -5 66 -48 166 -83 191 -40 30 -85 38 -105 18z m93 -59 c0 -4
12 -21 28 -38 l28 -29 -28 10 c-16 6 -54 11 -85 12 l-57 1 38 16 c20 10 35 22
33 28 -2 6 6 10 20 10 13 -1 24 -5 23 -10z m21 -122 c6 -14 10 -27 10 -29 0
-7 -61 -11 -66 -3 -3 5 0 7 7 6 12 -3 15 2 18 37 2 24 21 17 31 -11z m-148
-14 c2 -6 20 -11 41 -12 47 -2 36 -15 -21 -24 -37 -6 -42 -4 -36 10 4 11 1 16
-12 16 -16 0 -17 2 -4 10 19 12 28 12 32 0z m198 -60 c8 -5 11 -12 7 -16 -4
-4 -15 0 -24 9 -18 18 -8 23 17 7z m-100 -110 c0 -5 -7 -10 -15 -10 -8 0 -15
5 -15 10 0 6 7 10 15 10 8 0 15 -4 15 -10z m85 -120 c-3 -5 -14 -10 -23 -10
-15 0 -15 2 -2 10 20 13 33 13 25 0z m-365 -90 c0 -5 -4 -10 -10 -10 -5 0 -10
5 -10 10 0 6 5 10 10 10 6 0 10 -4 10 -10z m390 0 c0 -5 -5 -10 -11 -10 -5 0
-7 5 -4 10 3 6 8 10 11 10 2 0 4 -4 4 -10z m-112 -16 c-11 -11 -23 -14 -39 -8
l-24 8 25 7 c46 13 56 11 38 -7z m167 -78 c17 -17 7 -30 -12 -15 -13 12 -18
29 -7 29 3 0 12 -6 19 -14z m-290 -17 c0 -8 4 -17 9 -20 9 -7 -22 -79 -34 -79
-17 0 -38 46 -28 63 6 11 5 17 -2 17 -8 0 -8 6 0 20 12 23 55 22 55 -1z m222
-116 c-3 -3 -11 -2 -17 2 -9 6 -9 10 1 16 14 8 27 -7 16 -18z m-37 -8 c11 -13
10 -14 -4 -9 -9 3 -16 10 -16 15 0 13 6 11 20 -6z m63 -22 c-7 -2 -19 -2 -25
0 -7 3 -2 5 12 5 14 0 19 -2 13 -5z m-304 -132 c-4 -57 -10 -106 -13 -109 -3
-3 -6 33 -7 79 0 70 -2 80 -11 59 -6 -14 -10 -30 -9 -37 2 -17 -16 -25 -39
-18 -21 7 -29 55 -9 55 6 0 8 8 4 19 -7 22 14 41 49 45 14 1 29 6 33 9 11 11
11 6 2 -102z m408 103 c-3 -3 -12 -4 -19 -1 -8 3 -5 6 6 6 11 1 17 -2 13 -5z
m-257 -23 c0 -5 -7 -17 -16 -26 -20 -19 -15 -25 28 -34 26 -5 34 -13 38 -36 5
-25 10 -30 33 -28 18 1 27 -3 27 -13 0 -14 -12 -18 -39 -14 -9 1 -12 -4 -7
-15 3 -9 6 -24 6 -32 0 -11 7 -14 25 -10 16 3 24 0 22 -7 -2 -6 -9 -11 -15
-11 -18 0 -23 -12 -16 -39 5 -23 8 -24 18 -11 10 14 14 14 30 2 24 -17 15 -50
-12 -45 -31 5 -52 -21 -52 -63 0 -36 -2 -39 -27 -40 -16 0 -37 -4 -47 -8 -17
-6 -17 -8 -4 -14 11 -4 15 -13 11 -28 -6 -21 -4 -22 35 -15 51 8 57 -10 7 -20
-19 -3 -35 -10 -35 -15 0 -5 -6 -6 -14 -3 -9 3 -16 29 -21 68 -3 35 -12 75
-20 89 -8 15 -10 27 -4 27 5 0 9 4 9 9 0 5 -14 3 -30 -6 -34 -17 -60 -12 -60
12 0 10 10 15 31 15 27 0 30 3 27 28 -3 23 -7 27 -32 24 -33 -4 -32 21 1 26
31 5 27 66 -5 70 -27 4 -29 22 -2 22 15 0 20 7 20 29 0 20 9 36 25 49 25 20
36 60 13 46 -9 -5 -9 -2 1 9 14 18 51 23 51 8z m-306 -38 c3 -10 4 -34 3 -55
-2 -33 0 -36 23 -33 23 2 39 -9 40 -27 0 -5 -16 -8 -35 -8 -39 0 -47 -14 -14
-23 14 -4 20 -11 16 -21 -3 -8 -2 -18 4 -21 5 -4 6 -11 3 -17 -10 -15 -12
-158 -3 -164 14 -9 30 36 24 69 -5 26 -2 35 15 45 12 7 24 11 27 8 3 -3 7 -39
9 -80 3 -62 0 -79 -16 -98 l-19 -23 -1 23 c0 18 -5 22 -35 22 -43 0 -46 -15
-5 -24 29 -5 31 -8 25 -39 -5 -24 -1 -39 13 -57 31 -40 63 -125 59 -156 -3
-23 -15 -35 -61 -61 -32 -18 -67 -33 -78 -33 -12 0 -18 -6 -16 -16 2 -11 -9
-21 -34 -29 -32 -12 -38 -11 -57 6 -11 10 -22 15 -26 10 -3 -5 -24 -9 -47 -8
-38 1 -42 -1 -49 -26 -12 -46 -5 -140 13 -166 16 -22 18 -22 33 -7 20 20 25
20 52 1 12 -8 28 -13 36 -10 7 3 20 -1 27 -10 7 -8 19 -15 27 -15 7 0 17 -8
20 -17 4 -10 11 -21 17 -25 8 -5 8 -13 0 -25 -14 -22 -72 -20 -123 4 -43 21
-62 10 -78 -46 -7 -24 -26 -57 -43 -74 -37 -38 -38 -49 -2 -41 44 10 76 34 63
47 -6 6 -11 15 -11 19 0 13 65 9 78 -4 18 -18 14 -26 -10 -21 -28 4 -39 -3
-58 -42 -11 -20 -24 -31 -43 -33 -15 -2 -27 -8 -27 -13 0 -5 -1 -12 -2 -16 -2
-5 14 -6 35 -5 l37 4 -17 -36 c-15 -31 -21 -36 -53 -36 -20 0 -53 -9 -73 -19
l-38 -19 7 36 c4 21 17 81 31 136 13 54 22 101 19 103 -9 9 -47 -19 -43 -32 6
-15 -11 -35 -31 -35 -24 0 -7 69 26 104 16 17 35 40 41 51 12 20 12 20 6 -1
-3 -12 0 -26 8 -32 10 -9 17 -2 30 33 17 48 16 51 -14 35 -27 -15 -25 0 10 63
18 32 31 75 35 111 4 32 19 91 35 130 16 39 33 89 37 111 17 86 -4 445 -30
495 -15 31 -15 33 7 51 12 10 29 16 37 13 29 -11 35 -9 35 11 0 27 26 54 61
65 45 13 62 11 68 -7z m110 -98 c-4 -8 -8 -15 -10 -15 -2 0 -4 7 -4 15 0 8 4
15 10 15 5 0 7 -7 4 -15z m-374 -85 c-5 -22 -8 -27 -9 -13 -1 21 9 56 14 51 2
-2 0 -19 -5 -38z m470 10 c0 -5 -4 -10 -10 -10 -5 0 -10 5 -10 10 0 6 5 10 10
10 6 0 10 -4 10 -10z m-61 -107 c0 -76 -3 -93 -11 -76 -10 20 -3 173 8 173 2
0 4 -44 3 -97z m644 -124 c4 -17 3 -19 -6 -10 -13 13 -47 15 -47 1 0 -5 20
-21 45 -36 40 -23 44 -29 39 -52 -4 -15 -7 -28 -8 -29 -1 -1 -18 2 -39 6 -30
7 -37 6 -37 -6 0 -11 -7 -14 -22 -10 -13 4 -33 -2 -51 -15 -27 -19 -30 -20
-39 -4 -5 9 -13 14 -18 11 -4 -3 -15 7 -24 21 -17 25 -54 46 -69 37 -4 -3 8
-22 28 -44 42 -47 43 -55 8 -62 -21 -4 -32 0 -45 16 -17 21 -17 20 -13 -39 l5
-62 -75 -11 c-42 -6 -91 -11 -110 -11 -21 0 -35 -5 -36 -12 0 -7 -4 -4 -8 7
-5 11 -5 27 -1 35 8 15 4 100 -5 108 -3 3 -19 5 -35 5 -21 0 -30 5 -30 16 0
13 10 15 50 13 43 -3 50 -1 50 15 0 14 2 15 9 4 8 -12 27 -10 122 13 62 15
140 41 174 57 34 16 74 29 88 29 14 0 32 7 39 15 20 22 55 19 61 -6z m97 -79
c0 -15 -5 -12 -26 11 -19 22 -19 22 4 10 12 -6 22 -16 22 -21z m9 -36 c2 -2 2
-7 -2 -10 -3 -3 -16 2 -29 11 l-23 17 25 -7 c14 -4 27 -9 29 -11z m-1523 -79
c-8 -8 -21 -15 -28 -15 -7 0 -19 -9 -26 -20 -7 -12 -17 -18 -23 -15 -5 4 -20
0 -32 -8 -26 -17 -148 -60 -153 -54 -10 9 10 37 29 42 12 3 38 12 57 20 19 7
44 17 55 21 23 9 33 11 58 13 9 0 17 8 17 16 0 10 10 15 31 15 27 0 29 -2 15
-15z m-576 -75 c0 -5 -5 -10 -11 -10 -5 0 -7 5 -4 10 3 6 8 10 11 10 2 0 4 -4
4 -10z m1397 -37 c-3 -10 -5 -2 -5 17 0 19 2 27 5 18 2 -10 2 -26 0 -35z
m-1150 -49 c7 -18 -18 -39 -28 -22 -10 16 -43 5 -47 -17 -6 -32 -16 -37 -82
-41 -77 -5 -106 1 -87 20 7 8 28 17 45 21 38 8 89 32 97 46 11 16 95 11 102
-7z m1642 -76 c22 -36 20 -46 -6 -30 -12 8 -33 55 -33 75 0 14 11 2 39 -45z
m-1072 36 c-3 -3 -12 -4 -19 -1 -8 3 -5 6 6 6 11 1 17 -2 13 -5z m743 -14 c0
-5 -7 -10 -16 -10 -8 0 -12 5 -9 10 3 6 10 10 16 10 5 0 9 -4 9 -10z m37 4
c-3 -3 -12 -4 -19 -1 -8 3 -5 6 6 6 11 1 17 -2 13 -5z m243 -5 c0 -5 0 -12 0
-16 0 -5 -8 -9 -17 -9 -10 -1 -31 -3 -48 -5 -22 -3 -30 0 -30 11 0 9 13 17 30
20 50 9 65 9 65 -1z m-1930 -3 c0 -3 -4 -8 -10 -11 -5 -3 -10 -1 -10 4 0 6 5
11 10 11 6 0 10 -2 10 -4z m-40 -16 c0 -5 -5 -10 -11 -10 -5 0 -7 5 -4 10 3 6
8 10 11 10 2 0 4 -4 4 -10z m1577 4 c-3 -3 -12 -4 -19 -1 -8 3 -5 6 6 6 11 1
17 -2 13 -5z m-127 -24 c0 -12 -58 -43 -84 -44 -11 -1 -21 -7 -24 -14 -3 -9 3
-13 14 -12 34 4 62 -12 69 -37 7 -29 -2 -44 -15 -24 -7 12 -11 11 -25 -2 -23
-24 -35 -21 -78 16 -40 34 -43 67 -6 67 13 0 19 7 19 24 0 22 5 25 43 29 82 7
87 7 87 -3z m-1580 -26 c0 -8 -10 -14 -25 -14 -29 0 -32 8 -8 26 20 14 33 10
33 -12z m1880 13 c-11 -9 -80 -17 -80 -9 0 4 19 9 42 11 23 1 40 0 38 -2z
m-1970 -31 c0 -3 -4 -8 -10 -11 -5 -3 -10 -1 -10 4 0 6 5 11 10 11 6 0 10 -2
10 -4z m1970 -27 c0 -4 -16 -9 -35 -11 -38 -4 -49 8 -12 14 36 6 47 5 47 -3z
m37 5 c-3 -3 -12 -4 -19 -1 -8 3 -5 6 6 6 11 1 17 -2 13 -5z m-2102 -34 c3 -5
-1 -10 -10 -10 -9 0 -13 5 -10 10 3 6 8 10 10 10 2 0 7 -4 10 -10z m2075 -23
c-11 -9 -80 -17 -80 -9 0 4 19 9 42 11 23 1 40 0 38 -2z m0 -57 c-33 -11 -70
-12 -70 -2 0 5 21 9 48 9 37 1 42 0 22 -7z m10 -44 c0 -2 -16 -6 -35 -8 -19
-2 -35 0 -35 4 0 4 16 8 35 8 19 0 35 -2 35 -4z m-1138 -68 c-7 -7 -12 -8 -12
-2 0 6 3 14 7 17 3 4 9 5 12 2 2 -3 -1 -11 -7 -17z m1111 15 c-7 -2 -21 -2
-30 0 -10 3 -4 5 12 5 17 0 24 -2 18 -5z m-246 -35 c-3 -8 -6 -5 -6 6 -1 11 2
17 5 13 3 -3 4 -12 1 -19z m260 -4 c-3 -3 -12 -4 -19 -1 -8 3 -5 6 6 6 11 1
17 -2 13 -5z m-2157 -56 c5 -13 9 -18 9 -12 1 6 18 16 40 22 57 18 67 15 45
-9 -26 -29 -41 -36 -102 -44 -45 -6 -51 -5 -46 9 3 9 15 16 25 16 17 0 18 3 9
20 -8 14 -8 20 0 20 6 0 15 -10 20 -22z m2167 16 c-3 -3 -12 -4 -19 -1 -8 3
-5 6 6 6 11 1 17 -2 13 -5z m-894 -57 c8 -22 1 -37 -18 -37 -19 0 -27 17 -20
40 8 24 27 22 38 -3z m42 -77 c3 -5 -1 -10 -9 -10 -8 0 -18 5 -21 10 -3 6 1
10 9 10 8 0 18 -4 21 -10z m570 -30 l-7 -31 -76 2 c-78 2 -107 12 -95 33 4 6
-1 5 -10 -3 -20 -16 -47 -8 -47 13 0 12 20 15 112 15 61 0 113 3 116 6 11 10
14 -5 7 -35z m-755 14 c0 -10 -5 -14 -16 -10 -8 3 -25 -3 -36 -14 -24 -22 -38
-26 -38 -10 0 6 5 10 11 10 6 0 22 9 36 20 31 24 43 25 43 4z m474 1 c-6 -16
-24 -21 -24 -7 0 11 11 22 21 22 5 0 6 -7 3 -15z m-22 -102 c15 -15 28 -30 28
-34 0 -4 -16 -17 -36 -29 -42 -26 -38 -37 7 -21 37 13 53 4 25 -13 -10 -6 -28
-19 -40 -29 -21 -18 -21 -18 19 -12 48 8 47 7 -32 -39 -35 -21 -63 -39 -63
-42 0 -3 15 -2 32 2 29 6 31 5 19 -10 -11 -13 -11 -19 -1 -31 12 -14 15 -14
31 1 17 16 19 16 25 -2 13 -40 13 -44 4 -45 -19 -3 -25 -4 -35 -10 -5 -4 -34
0 -64 7 -30 8 -56 12 -58 10 -7 -7 45 -145 73 -195 13 -24 23 -46 21 -48 -7
-6 -52 59 -77 110 -13 26 -27 47 -31 47 -13 0 -57 -101 -64 -150 l-7 -45 21
19 c11 11 21 25 21 33 0 20 18 16 25 -7 3 -10 -1 -33 -10 -49 -21 -41 -28
-132 -17 -211 10 -70 -3 -110 -37 -110 -9 0 -22 -5 -29 -12 -9 -9 -16 -8 -30
5 -10 9 -21 14 -25 11 -3 -4 -50 -6 -102 -5 -61 1 -102 -2 -110 -9 -20 -17
-68 -4 -95 26 -29 30 -39 30 -69 -1 -29 -32 -48 -31 -78 1 -19 21 -26 24 -38
14 -8 -7 -15 -19 -15 -26 0 -9 -11 -14 -27 -14 -31 -1 -63 -21 -63 -39 0 -16
-46 -13 -60 4 -18 21 2 65 30 65 11 0 20 5 20 10 0 13 -26 13 -50 0 -16 -9
-22 -5 -35 19 -8 17 -15 44 -15 61 0 18 -5 29 -12 27 -6 -1 -14 6 -16 16 -3
13 1 17 14 15 12 -2 19 4 21 17 1 11 0 14 -3 8 -8 -19 -52 -16 -111 7 -29 11
-60 17 -70 13 -33 -11 -53 -36 -53 -64 0 -19 -6 -30 -20 -34 -11 -3 -25 -18
-32 -33 -7 -15 -21 -28 -31 -30 -15 -3 -17 2 -11 39 5 30 4 40 -4 35 -7 -4
-14 3 -18 18 -5 20 1 32 25 57 17 17 31 35 31 40 0 13 -48 42 -59 35 -5 -3
-22 -1 -38 5 -15 7 -57 11 -91 10 -56 -2 -64 1 -69 19 -4 13 -14 20 -30 20
-13 0 -34 7 -46 15 -13 8 -56 17 -97 20 -41 4 -92 11 -112 16 -41 11 -67 44
-49 62 6 6 11 19 11 29 0 10 6 18 13 18 6 0 4 5 -6 11 -15 9 -27 5 -64 -21
-48 -35 -122 -56 -195 -55 -56 0 -65 17 -14 26 19 3 51 19 72 35 20 16 48 36
62 44 33 20 40 40 13 40 -12 0 -21 5 -21 10 0 6 11 10 24 10 13 0 46 9 73 21
101 43 193 66 193 48 0 -6 -13 -27 -30 -46 -24 -27 -40 -63 -27 -63 1 0 34 13
72 30 75 32 149 39 162 16 7 -11 18 -10 67 6 45 15 61 16 67 7 5 -9 11 -8 24
4 10 10 32 17 55 17 31 0 43 -6 59 -28 l20 -29 -35 -13 c-33 -14 -71 -56 -60
-68 9 -8 64 -5 126 8 103 21 118 22 124 11 4 -6 0 -11 -8 -11 -30 0 -16 -17
23 -29 43 -12 71 -7 71 15 0 8 3 15 8 15 4 1 23 3 42 5 19 1 81 9 138 15 92
12 103 15 108 35 5 19 13 22 67 23 42 1 66 6 73 16 7 9 31 16 63 17 29 1 55 6
57 10 3 5 10 6 15 2 6 -3 18 -3 27 1 15 6 14 8 -5 16 -33 12 -28 26 15 40 20
6 43 16 50 22 20 15 14 37 -10 38 -15 0 -18 2 -8 6 8 3 47 25 86 50 49 29 76
54 84 74 7 16 24 39 39 50 38 30 133 20 173 -18z m-857 -3 c3 -6 -1 -13 -10
-16 -19 -8 -30 0 -20 15 8 14 22 14 30 1z m-895 -90 c0 -5 -4 -10 -9 -10 -6 0
-13 5 -16 10 -3 6 1 10 9 10 9 0 16 -4 16 -10z m2247 -37 c-3 -10 -5 -4 -5 12
0 17 2 24 5 18 2 -7 2 -21 0 -30z m-2502 -37 c6 -2 -5 -10 -23 -18 -55 -24
-104 -4 -71 29 10 10 41 6 94 -11z m2600 -76 c3 -5 1 -10 -4 -10 -6 0 -11 5
-11 10 0 6 2 10 4 10 3 0 8 -4 11 -10z m-2628 -25 c-30 -26 -61 -34 -55 -12 5
14 46 37 68 37 10 -1 5 -9 -13 -25z m2773 -177 c-111 -22 -130 -25 -130 -18 0
10 77 26 130 27 l45 0 -45 -9z m437 -80 c-3 -8 -6 -5 -6 6 -1 11 2 17 5 13 3
-3 4 -12 1 -19z m-317 -53 c0 -8 -4 -15 -9 -15 -5 0 -11 7 -15 15 -3 9 0 15 9
15 8 0 15 -7 15 -15z m-2540 -35 c0 -5 -4 -10 -10 -10 -5 0 -10 5 -10 10 0 6
5 10 10 10 6 0 10 -4 10 -10z m280 -140 c0 -5 -5 -10 -11 -10 -5 0 -7 5 -4 10
3 6 8 10 11 10 2 0 4 -4 4 -10z m2539 -82 c-26 -36 -35 -46 -64 -68 -11 -8 1
9 28 39 26 29 47 58 47 64 0 6 3 8 6 4 3 -3 -4 -21 -17 -39z m-890 2 c11 -24
11 -24 -3 -6 -9 11 -16 24 -16 30 0 12 5 7 19 -24z m-1749 -10 c0 -5 -5 -10
-11 -10 -5 0 -7 5 -4 10 3 6 8 10 11 10 2 0 4 -4 4 -10z m1465 -20 c3 -5 1
-10 -4 -10 -6 0 -11 5 -11 10 0 6 2 10 4 10 3 0 8 -4 11 -10z m-287 -106 c-10
-21 -16 -23 -52 -18 -72 11 -66 27 24 56 26 9 40 -10 28 -38z m188 -1 c10 -27
23 -51 28 -55 8 -5 7 -13 -2 -25 -7 -10 -18 -30 -25 -45 -6 -16 -15 -28 -19
-28 -4 0 -8 45 -8 100 0 55 2 100 4 100 2 0 12 -21 22 -47z m484 16 c0 -6 -4
-7 -10 -4 -5 3 -10 11 -10 16 0 6 5 7 10 4 6 -3 10 -11 10 -16z m-180 -10 c0
-11 -4 -17 -10 -14 -5 3 -10 13 -10 21 0 8 5 14 10 14 6 0 10 -9 10 -21z
m-1280 -45 c10 -30 10 -39 -3 -51 -13 -13 -15 -12 -21 10 -3 14 -15 29 -26 32
-25 8 -26 21 -2 34 29 18 40 12 52 -25z m1091 -4 c25 -20 20 -24 -18 -14 -13
4 -23 13 -23 20 0 19 14 17 41 -6z m-391 -18 c0 -18 -39 -43 -62 -40 -22 3
-21 4 12 25 39 24 50 27 50 15z m-90 -26 c0 -9 -7 -12 -20 -9 -11 3 -17 9 -14
14 8 14 34 10 34 -5z m-653 -47 c-3 -36 -27 -11 -27 28 0 12 3 13 14 4 8 -7
14 -21 13 -32z m453 21 c0 -5 -7 -10 -15 -10 -8 0 -15 5 -15 10 0 6 7 10 15
10 8 0 15 -4 15 -10z m-358 -32 c-7 -7 -12 -8 -12 -2 0 14 12 26 19 19 2 -3
-1 -11 -7 -17z m1072 -19 c-27 -11 -34 -10 -34 0 0 11 31 20 44 13 5 -3 1 -9
-10 -13z m-1244 -14 c0 -8 -7 -15 -15 -15 -16 0 -20 12 -8 23 11 12 23 8 23
-8z m1495 -55 c16 -7 11 -9 -20 -9 -29 -1 -36 2 -25 9 17 11 19 11 45 0z
m-1649 -30 c24 0 15 -19 -11 -26 -14 -3 -25 -10 -25 -15 0 -22 -42 -49 -74
-49 -44 0 -53 13 -27 39 11 11 18 27 15 35 -6 17 32 26 80 20 16 -2 35 -4 42
-4z m-216 -15 c0 -8 -4 -15 -10 -15 -5 0 -10 7 -10 15 0 8 5 15 10 15 6 0 10
-7 10 -15z m499 -75 c0 -9 -4 -8 -9 5 -5 11 -9 27 -9 35 0 9 4 8 9 -5 5 -11 9
-27 9 -35z m2832 -1 c-5 -13 -10 -19 -10 -12 -1 15 10 45 15 40 3 -2 0 -15 -5
-28z m-1599 -21 c-8 -8 -23 -8 -54 -1 l-43 11 55 1 c41 1 51 -2 42 -11z m-132
-35 c-8 -3 -28 -12 -45 -20 l-30 -14 24 21 c13 11 33 20 45 19 14 0 16 -2 6
-6z m-78 -148 c-11 -24 -24 -36 -45 -41 -15 -3 -31 -3 -34 0 -4 3 -1 6 5 6 7
0 12 6 12 13 0 11 55 55 71 56 4 1 -1 -15 -9 -34z m728 19 c0 -2 -7 -4 -15 -4
-8 0 -15 4 -15 10 0 5 7 7 15 4 8 -4 15 -8 15 -10z m697 -16 c-3 -8 -6 -5 -6
6 -1 11 2 17 5 13 3 -3 4 -12 1 -19z m-628 -1 c-2 -1 -11 -8 -20 -15 -14 -10
-18 -10 -23 3 -4 11 1 15 21 15 14 0 24 -1 22 -3z m-124 -27 c3 -5 -3 -10 -14
-10 -12 0 -21 5 -21 10 0 6 6 10 14 10 8 0 18 -4 21 -10z m-349 -36 c18 -14
18 -14 -6 -3 -31 14 -36 19 -24 19 6 0 19 -7 30 -16z m-2257 -184 c0 -9 -4 -8
-9 5 -5 11 -9 27 -9 35 0 9 4 8 9 -5 5 -11 9 -27 9 -35z m61 15 c0 -16 -27
-32 -37 -21 -7 7 16 36 28 36 5 0 9 -7 9 -15z m-180 -10 c-10 -12 -9 -15 5
-15 27 0 10 -12 -21 -16 l-26 -2 23 24 c25 26 39 33 19 9z m654 -18 c3 -12 3
-23 1 -26 -3 -2 -5 1 -5 7 0 7 -7 12 -15 12 -8 0 -15 9 -15 20 0 26 26 16 34
-13z m-153 10 c-6 -8 -8 -17 -4 -20 3 -4 -4 -7 -16 -7 l-23 0 23 20 c28 23 36
25 20 7z m88 -9 c-13 -6 -33 -11 -44 -14 -18 -3 -17 -1 4 15 14 10 33 16 44
13 19 -5 19 -6 -4 -14z m-236 -3 c4 -8 2 -17 -3 -20 -6 -4 -10 3 -10 14 0 25
6 27 13 6z m97 -9 c0 -8 -6 -16 -14 -19 -12 -5 -14 6 -7 31 3 9 21 -1 21 -12z
m-132 -13 c16 -16 16 -16 -2 -10 -14 6 -17 4 -12 -8 3 -9 2 -13 -3 -10 -9 5
-11 45 -3 45 2 0 11 -8 20 -17z m79 -15 c-3 -7 -5 -2 -5 12 0 14 2 19 5 13 2
-7 2 -19 0 -25z m86 -3 c-3 -9 -8 -14 -10 -11 -3 3 -2 9 2 15 9 16 15 13 8 -4z
m3647 -5 c6 -11 9 -20 8 -20 -2 0 -11 9 -21 20 -9 11 -13 20 -7 20 5 0 14 -9
20 -20z m-3890 -12 c0 -13 -23 -5 -28 10 -2 7 2 10 12 6 9 -3 16 -11 16 -16z"/>
<path d="M2680 3206 c0 -9 5 -16 10 -16 6 0 10 4 10 9 0 6 -4 13 -10 16 -5 3
-10 -1 -10 -9z"/>
<path d="M2600 3190 c0 -5 5 -10 10 -10 6 0 10 5 10 10 0 6 -4 10 -10 10 -5 0
-10 -4 -10 -10z"/>
<path d="M2700 3126 c0 -9 5 -16 10 -16 6 0 10 4 10 9 0 6 -4 13 -10 16 -5 3
-10 -1 -10 -9z"/>
<path d="M2605 3110 c-3 -5 -1 -10 4 -10 6 0 11 5 11 10 0 6 -2 10 -4 10 -3 0
-8 -4 -11 -10z"/>
<path d="M2725 3040 c3 -5 8 -10 11 -10 2 0 4 5 4 10 0 6 -5 10 -11 10 -5 0
-7 -4 -4 -10z"/>
<path d="M2191 3203 c5 -21 9 -45 9 -53 0 -13 -2 -13 -11 0 -9 12 -9 11 -4 -5
5 -11 9 -31 11 -45 1 -14 7 -54 12 -90 5 -36 9 -77 8 -92 -1 -16 1 -28 6 -28
4 0 5 -19 2 -42 -17 -146 -17 -148 0 -148 9 0 25 9 36 20 24 24 28 120 6 161
-7 15 -14 55 -14 90 -2 165 -26 268 -63 269 -4 0 -3 -17 2 -37z"/>
<path d="M2376 2745 c-8 -30 -1 -45 20 -45 20 0 28 24 14 49 -14 28 -26 26
-34 -4z"/>
<path d="M2451 2686 c-1 -14 -6 -17 -25 -12 -14 3 -27 2 -30 -3 -5 -8 63 -27
68 -19 2 2 -1 14 -5 28 -5 18 -7 20 -8 6z"/>
<path d="M2388 2613 c6 -2 18 -2 25 0 6 3 1 5 -13 5 -14 0 -19 -2 -12 -5z"/>
<path d="M2707 2765 c-26 -6 -50 -15 -54 -18 -10 -11 38 -7 82 7 55 16 31 26
-28 11z"/>
<path d="M2716 2719 c-27 -4 -56 -15 -65 -25 -15 -15 -14 -16 14 -9 17 5 54
11 84 14 30 3 56 12 59 19 4 14 -17 14 -92 1z"/>
<path d="M2736 2676 c-33 -6 -61 -17 -64 -24 -3 -11 11 -12 69 -6 83 7 89 9
89 30 0 16 -12 16 -94 0z"/>
<path d="M1931 1594 c0 -11 3 -14 6 -6 3 7 2 16 -1 19 -3 4 -6 -2 -5 -13z"/>
<path d="M1942 1515 c0 -16 2 -22 5 -12 2 9 2 23 0 30 -3 6 -5 -1 -5 -18z"/>
<path d="M1951 1457 c-10 -41 -11 -61 -3 -69 7 -7 12 2 17 34 12 77 2 100 -14
35z"/>
<path d="M676 1457 c-11 -8 -15 -19 -10 -30 9 -24 26 -16 35 16 8 30 2 33 -25
14z"/>
<path d="M1558 1453 c7 -3 16 -2 19 1 4 3 -2 6 -13 5 -11 0 -14 -3 -6 -6z"/>
<path d="M571 1396 c-8 -10 -9 -16 -1 -21 15 -9 52 5 47 18 -6 18 -32 20 -46
3z"/>
<path d="M950 1290 c0 -5 7 -7 15 -4 8 4 15 8 15 10 0 2 -7 4 -15 4 -8 0 -15
-4 -15 -10z"/>
<path d="M1060 1279 c0 -14 5 -19 17 -17 26 5 29 38 4 38 -15 0 -21 -6 -21
-21z"/>
<path d="M1008 1274 c-10 -10 21 -66 32 -59 14 9 12 17 -8 43 -10 13 -21 20
-24 16z"/>
<path d="M1962 1200 c0 -14 2 -19 5 -12 2 6 2 18 0 25 -3 6 -5 1 -5 -13z"/>
<path d="M1827 1173 c-18 -17 -6 -38 22 -39 27 -1 28 1 19 22 -11 24 -28 31
-41 17z"/>
<path d="M1971 1143 c-1 -17 3 -35 9 -38 5 -3 7 -18 4 -34 -4 -21 -1 -30 11
-35 14 -5 16 -1 9 26 -3 18 -12 51 -19 73 l-13 40 -1 -32z"/>
<path d="M710 600 c0 -5 5 -10 10 -10 6 0 10 5 10 10 0 6 -4 10 -10 10 -5 0
-10 -4 -10 -10z"/>
<path d="M2372 4065 c-17 -38 -14 -43 8 -15 21 27 25 40 12 40 -5 0 -14 -11
-20 -25z"/>
<path d="M2235 3640 c-4 -11 -11 -20 -16 -20 -6 0 -14 -12 -20 -28 -5 -15 -28
-39 -52 -54 -52 -33 -83 -65 -73 -75 4 -5 12 0 17 10 19 33 163 107 171 88 2
-5 10 -2 18 7 13 14 12 15 -4 9 -14 -6 -17 -4 -12 9 3 8 6 18 6 20 0 3 4 3 9
-1 5 -3 13 0 17 6 4 8 3 9 -4 5 -7 -4 -12 -1 -12 6 0 7 -9 19 -19 25 -17 11
-21 9 -26 -7z"/>
<path d="M2197 3393 c-13 -21 -15 -63 -4 -63 18 0 46 20 28 20 -7 0 -11 6 -8
13 6 17 -8 43 -16 30z"/>
<path d="M4481 3106 c-7 -8 -35 -17 -64 -21 -29 -4 -67 -14 -85 -22 -17 -9
-44 -13 -59 -10 -27 5 -101 -6 -180 -26 -48 -13 -59 -27 -15 -20 l27 4 -25
-13 c-33 -18 -37 -44 -8 -52 19 -5 20 -8 8 -16 -21 -14 -30 -12 -30 5 0 11
-14 14 -65 13 -67 -1 -104 -16 -91 -37 5 -8 19 -10 36 -6 15 3 31 2 34 -4 11
-17 -43 -44 -95 -46 -27 -2 -58 -9 -69 -17 -24 -16 -31 -55 -10 -49 8 2 47 5
85 7 99 5 201 13 261 20 37 5 59 2 81 -9 17 -9 33 -13 37 -10 3 4 6 1 6 -6 0
-9 -17 -12 -57 -11 -67 2 -103 -7 -103 -26 0 -20 17 -26 40 -14 16 9 26 6 50
-11 l29 -22 50 26 c38 19 51 22 55 12 6 -17 -2 -23 -106 -74 -65 -32 -93 -41
-110 -35 -32 10 -87 5 -120 -12 -30 -16 -48 -37 -23 -28 9 4 29 -2 44 -14 16
-11 44 -24 64 -27 37 -7 57 -32 32 -40 -8 -3 -23 -8 -32 -12 -39 -14 15 -14
70 0 87 23 100 -1 17 -33 -41 -16 -53 -30 -39 -47 12 -14 -6 -46 -40 -69 -24
-17 -28 -59 -6 -68 9 -3 15 0 15 8 0 21 51 57 171 122 22 12 47 30 57 41 29
34 59 45 83 33 12 -7 32 -9 47 -4 15 4 30 7 35 6 4 -1 7 2 7 7 0 16 93 42 148
42 18 -1 22 5 22 30 0 28 -2 30 -17 18 -10 -9 -34 -13 -65 -11 -30 3 -48 0
-48 -7 0 -6 -4 -11 -10 -11 -23 0 -7 27 30 50 22 14 40 28 40 32 0 5 8 8 18 8
11 0 26 8 35 18 15 16 17 46 17 215 0 108 -3 197 -7 197 -5 0 -39 9 -78 20
-85 24 -80 23 -94 6z m-37 -257 c4 -3 -1 -12 -10 -20 -18 -15 -166 -21 -157
-6 2 4 12 7 22 7 9 0 25 6 35 13 17 13 99 17 110 6z m111 -40 c-9 -13 -56 -31
-63 -24 -8 8 30 34 51 35 10 0 15 -5 12 -11z m-85 -39 c-7 -4 -10 -15 -7 -23
4 -10 -1 -18 -13 -22 -11 -3 -20 -17 -22 -33 -2 -19 -10 -28 -25 -30 -13 -2
-23 2 -23 8 0 6 -5 8 -11 4 -7 -4 -26 -9 -42 -11 l-31 -3 34 25 c20 15 34 35
36 51 3 31 -2 27 59 46 31 10 51 12 54 6 2 -6 -2 -14 -9 -18z m-180 -120 c0
-5 -4 -10 -10 -10 -5 0 -10 5 -10 10 0 6 5 10 10 10 6 0 10 -4 10 -10z m98
-81 c-10 -5 -18 -17 -18 -26 0 -13 -3 -13 -15 -3 -26 22 -14 36 35 39 11 0 11
-2 -2 -10z m76 -20 c-9 -15 -34 -10 -28 5 3 8 12 12 20 9 8 -3 11 -9 8 -14z
m-158 -23 c-27 -23 -56 -25 -56 -5 0 12 38 28 65 28 17 0 16 -3 -9 -23z m109
14 c-3 -5 -12 -10 -18 -10 -7 0 -6 4 3 10 19 12 23 12 15 0z m-235 -120 c0 -5
-7 -10 -16 -10 -8 0 -12 5 -9 10 3 6 10 10 16 10 5 0 9 -4 9 -10z"/>
<path d="M4390 2725 c0 -8 5 -15 10 -15 6 0 10 7 10 15 0 8 -4 15 -10 15 -5 0
-10 -7 -10 -15z"/>
<path d="M3428 3073 c12 -2 30 -2 40 0 9 3 -1 5 -23 4 -22 0 -30 -2 -17 -4z"/>
<path d="M3506 3039 c-33 -13 -59 -17 -82 -13 -48 9 -124 -4 -124 -21 0 -8 5
-26 12 -40 13 -28 39 -32 78 -12 14 7 42 10 65 7 l40 -5 -42 -24 c-23 -13 -40
-28 -37 -33 4 -5 44 -6 95 -2 74 5 89 4 87 -7 -4 -17 51 -21 96 -6 93 30 101
35 98 55 -2 13 5 25 17 32 53 28 3 56 -134 75 -128 18 -109 18 -169 -6z"/>
<path d="M3995 3010 c-4 -6 5 -10 19 -10 14 0 26 5 26 10 0 6 -9 10 -19 10
-11 0 -23 -4 -26 -10z"/>
<path d="M3850 2990 c-12 -8 -9 -10 13 -10 16 0 26 4 22 10 -8 12 -16 12 -35
0z"/>
<path d="M3948 2993 c7 -3 16 -2 19 1 4 3 -2 6 -13 5 -11 0 -14 -3 -6 -6z"/>
<path d="M3350 2880 c0 -5 4 -10 9 -10 6 0 13 5 16 10 3 6 -1 10 -9 10 -9 0
-16 -4 -16 -10z"/>
<path d="M3350 2819 c0 -6 13 -8 31 -5 45 7 48 16 6 16 -20 0 -37 -5 -37 -11z"/>
<path d="M3680 2744 c-25 -9 -56 -27 -70 -40 l-25 -24 37 0 c64 0 118 32 118
71 0 12 -6 11 -60 -7z"/>
<path d="M3853 2734 c-28 -16 -43 -32 -43 -45 0 -11 -3 -18 -8 -15 -4 2 -16
-2 -27 -10 -17 -12 -18 -16 -5 -24 19 -12 50 6 50 30 0 14 7 20 24 20 27 0 89
47 80 61 -9 15 -26 10 -71 -17z"/>
<path d="M3920 2680 c0 -5 7 -10 16 -10 8 0 12 5 9 10 -3 6 -10 10 -16 10 -5
0 -9 -4 -9 -10z"/>
<path d="M1785 2570 c-27 -10 -88 -36 -135 -59 -47 -22 -92 -41 -100 -41 -8 0
-50 -20 -94 -45 -58 -33 -89 -45 -120 -45 -45 0 -132 -36 -186 -78 -19 -15
-50 -37 -70 -50 l-35 -22 30 6 c17 4 66 24 109 45 44 22 85 39 93 39 7 0 21 4
31 9 97 48 195 91 206 91 7 0 39 11 70 25 32 14 62 23 67 20 19 -12 8 -25 -33
-36 -53 -15 -68 -26 -68 -50 0 -15 7 -19 38 -19 31 0 106 10 186 23 10 2 24
14 32 28 18 33 17 41 -3 30 -27 -14 -113 -25 -113 -14 0 11 43 33 64 33 8 0
19 7 26 15 9 11 16 12 25 5 9 -8 15 1 25 34 19 70 14 76 -45 56z"/>
<path d="M3588 2583 c7 -3 16 -2 19 1 4 3 -2 6 -13 5 -11 0 -14 -3 -6 -6z"/>
<path d="M3875 2580 c-7 -12 12 -12 40 0 18 8 17 9 -7 9 -15 1 -30 -3 -33 -9z"/>
<path d="M3850 2499 c0 -5 5 -7 10 -4 6 3 10 8 10 11 0 2 -4 4 -10 4 -5 0 -10
-5 -10 -11z"/>
<path d="M3976 2490 c-18 -12 -39 -17 -56 -14 -33 7 -81 -28 -64 -46 9 -9 18
-8 37 5 14 9 31 15 39 14 7 -2 30 5 52 14 21 9 45 17 53 17 22 0 10 25 -13 27
-10 1 -32 -7 -48 -17z"/>
<path d="M4544 2500 c-12 -5 -25 -13 -28 -19 -3 -5 -21 -13 -39 -17 -17 -3
-43 -15 -56 -25 -13 -11 -28 -19 -33 -19 -5 0 -16 -7 -24 -15 -14 -13 -13 -15
4 -15 11 0 23 -7 26 -16 9 -23 8 -24 -14 -24 -12 0 -24 -10 -30 -24 -7 -19
-14 -23 -31 -19 -13 4 -26 0 -33 -8 -15 -19 -83 -42 -97 -33 -8 5 -9 3 -4 -6
6 -10 4 -12 -7 -8 -16 7 -52 -28 -53 -51 0 -8 -6 -16 -13 -19 -9 -3 -13 3 -11
14 2 11 -2 29 -9 40 -6 12 -9 24 -6 27 3 3 -3 3 -14 0 -17 -4 -21 1 -25 29
l-4 33 -1 -35 c-1 -20 3 -41 10 -48 10 -10 8 -16 -5 -29 -14 -15 -21 -15 -37
-5 -29 18 -46 15 -58 -10 -9 -20 -11 -20 -11 -4 -1 12 -6 16 -17 12 -9 -3 -22
-6 -30 -6 -8 0 -18 -10 -23 -22 -6 -18 -4 -25 12 -33 24 -12 36 -38 14 -29 -8
3 -18 0 -22 -6 -4 -7 -11 -8 -18 -2 -24 19 -64 22 -77 7 -14 -17 -47 -20 -52
-5 -5 15 -78 -11 -78 -27 0 -8 5 -11 11 -8 6 4 18 -3 26 -15 11 -16 23 -21 44
-18 29 5 41 -13 19 -27 -6 -4 -8 -10 -5 -15 6 -10 65 -2 80 10 6 5 32 10 58
12 27 2 49 9 52 16 3 10 10 10 24 2 29 -15 59 -12 70 8 8 13 13 14 19 5 5 -9
19 10 40 56 36 77 65 95 107 67 25 -16 35 -10 48 27 8 21 37 23 37 1 0 -27
-20 -54 -39 -54 -23 0 -30 -16 -25 -60 6 -48 21 -60 34 -26 5 15 10 34 10 42
0 12 28 20 55 14 6 -1 35 -3 66 -4 72 -3 84 -11 59 -38 -15 -17 -22 -19 -33
-9 -11 9 -17 8 -27 -4 -7 -8 -19 -15 -26 -15 -8 0 -14 -4 -14 -10 0 -5 -7 -10
-15 -10 -9 0 -18 -7 -21 -15 -5 -12 -10 -13 -20 -4 -11 9 -16 6 -25 -14 -12
-26 -44 -44 -89 -49 -19 -2 -26 -10 -28 -30 -4 -31 9 -36 28 -13 7 9 29 15 52
15 35 0 40 -2 35 -20 -4 -15 0 -20 14 -20 30 0 22 -25 -14 -42 -24 -12 -52
-15 -101 -12 -51 4 -73 1 -96 -13 -17 -10 -29 -22 -27 -28 5 -14 78 -7 97 10
9 7 34 12 60 11 25 -2 62 1 83 6 31 7 37 13 32 28 -8 25 13 30 103 26 56 -3
75 -1 79 10 3 8 15 14 27 14 12 0 27 5 34 12 7 7 12 8 12 4 0 -5 7 -3 15 4 9
7 32 13 51 12 l34 -1 -1 289 c-1 279 -1 289 -19 278 -15 -10 -23 -9 -38 5 -21
19 -27 20 -58 7z m43 -207 c-3 -3 -13 -3 -21 -1 -15 3 -15 6 1 28 l18 25 3
-23 c2 -13 1 -26 -1 -29z m-208 -26 c9 4 13 3 10 -1 -4 -4 -16 -8 -28 -11 -14
-3 -21 1 -21 13 0 12 3 13 11 5 6 -6 19 -9 28 -6z m121 -107 c0 -12 -37 -23
-51 -15 -7 5 -2 12 13 20 24 12 38 10 38 -5z m-703 -112 c-27 -21 -36 -4 -11
23 13 15 19 16 26 7 5 -8 -1 -19 -15 -30z m818 -48 c0 -9 -11 -16 -27 -18 -27
-3 -38 14 -21 32 12 12 48 2 48 -14z m-195 -26 c0 -8 -4 -12 -10 -9 -5 3 -10
10 -10 16 0 5 5 9 10 9 6 0 10 -7 10 -16z m-50 -9 c0 -19 -24 -30 -41 -19 -9
5 -7 11 6 21 24 17 35 17 35 -2z m100 1 c0 -3 -4 -8 -10 -11 -5 -3 -10 -1 -10
4 0 6 5 11 10 11 6 0 10 -2 10 -4z"/>
<path d="M3425 2390 c-3 -5 1 -10 10 -10 9 0 13 5 10 10 -3 6 -8 10 -10 10 -2
0 -7 -4 -10 -10z"/>
<path d="M3553 2393 c-7 -2 -13 -11 -13 -19 0 -11 5 -11 25 -2 39 18 28 38
-12 21z"/>
<path d="M1063 2367 c-29 -10 -50 -33 -40 -43 5 -5 69 17 84 29 7 5 10 13 7
18 -6 10 -7 10 -51 -4z"/>
<path d="M3320 2370 c-13 -8 -13 -10 2 -10 9 0 20 5 23 10 8 13 -5 13 -25 0z"/>
<path d="M4027 2353 c-12 -12 -7 -22 8 -17 8 4 15 10 15 15 0 11 -14 12 -23 2z"/>
<path d="M3498 2343 c7 -3 16 -2 19 1 4 3 -2 6 -13 5 -11 0 -14 -3 -6 -6z"/>
<path d="M1371 2306 c-50 -20 -79 -46 -51 -46 21 0 150 53 150 62 0 14 -43 7
-99 -16z"/>
<path d="M1036 2167 c-22 -11 -35 -22 -29 -24 16 -6 83 24 83 36 0 15 -9 13
-54 -12z"/>
<path d="M1400 2150 c-13 -9 -13 -10 0 -10 8 0 22 5 30 10 13 9 13 10 0 10 -8
0 -22 -5 -30 -10z"/>
<path d="M4292 2092 c4 -21 38 -29 38 -9 0 8 -9 17 -21 20 -15 4 -19 1 -17
-11z"/>
<path d="M4180 2071 c0 -6 5 -13 10 -16 6 -3 10 1 10 9 0 9 -4 16 -10 16 -5 0
-10 -4 -10 -9z"/>
<path d="M1066 2038 c-32 -4 -68 -14 -80 -21 -12 -8 -38 -17 -58 -21 -21 -4
-41 -13 -45 -21 -10 -17 -145 -95 -165 -95 -8 0 -28 -11 -44 -25 -28 -24 -28
-25 -6 -25 13 0 36 7 51 14 15 8 39 17 52 19 49 8 119 30 125 38 3 5 16 9 28
9 13 0 35 9 49 21 15 11 46 27 69 35 54 18 91 46 87 65 -3 12 -16 13 -63 7z"/>
<path d="M3161 2041 c-8 -6 -9 -11 -3 -15 6 -3 14 -1 17 5 9 14 2 20 -14 10z"/>
<path d="M3636 2041 c-4 -6 -13 -8 -20 -5 -17 6 -118 -25 -128 -40 -4 -6 -8
-21 -8 -33 0 -23 -30 -46 -53 -41 -20 5 -65 -36 -69 -63 -1 -13 -7 -23 -11
-21 -19 7 -37 -28 -31 -62 4 -28 1 -38 -11 -42 -24 -10 -28 1 -11 28 14 22 14
23 -15 24 -24 1 -31 -4 -38 -30 -5 -17 -10 -25 -10 -18 -2 20 -21 14 -21 -7 0
-30 -17 -34 -24 -7 -8 33 3 63 16 44 7 -9 8 0 4 25 -3 26 -1 35 6 31 8 -5 9
-1 5 10 -4 10 -7 24 -7 32 0 32 -27 11 -43 -33 -29 -81 -23 -113 28 -153 25
-19 45 -38 45 -42 0 -4 14 -2 31 4 34 12 47 5 31 -15 -7 -8 -9 -17 -5 -21 4
-4 -1 -4 -12 0 -18 6 -17 4 4 -20 17 -18 27 -23 32 -14 5 7 8 3 11 -11 l3 -21
37 20 c21 11 47 20 57 20 11 0 23 6 28 13 14 21 12 68 -4 74 -7 3 -20 18 -28
32 -12 23 -19 27 -49 23 -36 -4 -52 14 -21 23 49 16 47 13 28 42 -13 19 -14
28 -5 31 6 2 12 9 12 16 0 6 9 19 20 29 11 9 20 24 20 33 0 15 2 15 25 0 32
-21 45 -20 45 2 0 10 11 24 24 32 13 7 26 20 29 30 3 13 12 16 29 13 31 -6
100 34 96 56 -4 18 -33 27 -42 12z m-420 -349 c-17 -16 -18 -16 -5 5 7 12 15
20 18 17 3 -2 -3 -12 -13 -22z m176 -24 c-15 -15 -26 -4 -18 18 5 13 9 15 18
6 9 -9 9 -15 0 -24z m-13 -47 c16 -10 6 -51 -14 -51 -16 0 -26 25 -19 45 7 17
13 18 33 6z"/>
<path d="M4210 2011 c0 -5 9 -11 20 -14 24 -6 27 8 4 17 -21 8 -24 8 -24 -3z"/>
<path d="M3882 1965 c-23 -7 -54 -20 -67 -29 -13 -9 -31 -16 -40 -16 -8 0 -16
-8 -17 -17 -1 -10 -2 -27 -3 -38 -1 -11 -3 -25 -4 -32 -2 -17 -81 -13 -81 4 0
7 -4 13 -10 13 -5 0 -10 -6 -10 -14 0 -8 -6 -16 -12 -19 -10 -3 -10 -7 1 -20
21 -26 6 -44 -41 -49 -35 -4 -46 -1 -60 15 -14 18 -19 19 -32 8 -20 -17 -21
-31 -1 -31 18 0 20 -21 3 -38 -20 -20 12 -15 49 7 26 17 37 18 67 9 45 -14 47
-32 3 -24 -29 5 -37 1 -77 -39 -24 -25 -39 -45 -33 -45 12 0 122 43 156 61 31
17 39 -2 12 -27 -33 -30 -28 -50 11 -46 39 3 65 18 87 48 18 23 18 26 2 50
-14 22 -21 25 -52 19 -28 -5 -39 -2 -53 13 -17 18 -17 19 16 31 45 16 91 59
99 93 7 29 26 41 50 32 20 -8 45 13 38 31 -3 9 9 22 31 36 56 33 44 38 -32 14z"/>
<path d="M4080 1930 c0 -6 -11 -16 -25 -22 -29 -13 -33 -28 -7 -28 10 0 22 -4
28 -9 5 -6 16 -4 28 4 15 12 17 17 7 29 -7 8 -10 20 -6 26 3 5 -1 10 -9 10 -9
0 -16 -5 -16 -10z"/>
<path d="M4589 1870 c-22 -5 -48 -55 -35 -67 3 -4 18 0 32 7 20 11 29 12 44 2
28 -17 30 -16 30 26 0 33 -3 37 -24 37 -14 0 -35 -2 -47 -5z m41 -24 c0 -11
-19 -15 -25 -6 -3 5 1 10 9 10 9 0 16 -2 16 -4z"/>
<path d="M3916 1828 c-21 -24 -24 -33 -14 -40 24 -15 51 -4 59 24 12 44 -12
53 -45 16z"/>
<path d="M499 1824 c-22 -27 39 -24 88 5 14 8 8 10 -30 8 -27 -1 -53 -7 -58
-13z"/>
<path d="M4451 1803 c1 -37 1 -38 11 -10 5 15 16 27 24 27 8 0 14 5 14 10 0 6
-11 10 -25 10 -22 0 -25 -4 -24 -37z"/>
<path d="M3576 1815 c-4 -10 1 -15 14 -15 11 0 20 7 20 15 0 8 -6 15 -14 15
-8 0 -16 -7 -20 -15z"/>
<path d="M4010 1820 c0 -5 7 -10 15 -10 8 0 15 5 15 10 0 6 -7 10 -15 10 -8 0
-15 -4 -15 -10z"/>
<path d="M3811 1766 c-11 -13 -5 -46 8 -46 13 0 31 24 31 42 0 21 -23 24 -39
4z"/>
<path d="M3446 1695 c4 -8 8 -15 10 -15 2 0 4 7 4 15 0 8 -4 15 -10 15 -5 0
-7 -7 -4 -15z"/>
<path d="M4201 1594 c0 -11 3 -14 6 -6 3 7 2 16 -1 19 -3 4 -6 -2 -5 -13z"/>
<path d="M3170 1470 c0 -13 11 -13 30 0 12 8 11 10 -7 10 -13 0 -23 -4 -23
-10z"/>
<path d="M3179 1442 c-14 -6 -14 -9 -4 -19 10 -9 14 -8 18 8 3 10 4 19 4 18
-1 0 -9 -3 -18 -7z"/>
<path d="M2353 1423 c-20 -7 -15 -23 6 -23 10 0 21 7 25 15 5 15 -7 18 -31 8z"/>
<path d="M2320 1320 c-12 -8 -9 -10 12 -10 15 0 30 5 33 10 8 13 -25 13 -45 0z"/>
<path d="M3103 1315 c0 -8 4 -12 9 -9 5 3 6 10 3 15 -9 13 -12 11 -12 -6z"/>
<path d="M2347 1252 c-7 -27 9 -50 24 -35 13 13 9 45 -7 50 -6 2 -14 -5 -17
-15z"/>
<path d="M2360 1185 c-10 -12 -10 -15 4 -15 9 0 16 7 16 15 0 8 -2 15 -4 15
-2 0 -9 -7 -16 -15z"/>
<path d="M2691 1034 c0 -11 3 -14 6 -6 3 7 2 16 -1 19 -3 4 -6 -2 -5 -13z"/>
<path d="M2696 983 c-9 -10 -7 -43 3 -43 11 0 21 39 11 45 -4 2 -10 2 -14 -2z"/>
<path d="M1845 490 c3 -5 17 -10 31 -10 13 0 24 5 24 10 0 6 -14 10 -31 10
-17 0 -28 -4 -24 -10z"/>
<path d="M1662 450 c-10 -17 -10 -20 4 -20 15 0 44 23 44 34 0 15 -37 4 -48
-14z"/>
<path d="M1720 450 c-15 -27 -8 -34 25 -26 18 5 25 12 23 24 -5 25 -35 26 -48
2z"/>
<path d="M2597 449 c7 -7 15 -10 18 -7 3 3 -2 9 -12 12 -14 6 -15 5 -6 -5z"/>
<path d="M2448 413 c12 -2 30 -2 40 0 9 3 -1 5 -23 4 -22 0 -30 -2 -17 -4z"/>
<path d="M2551 381 c-10 -6 -5 -13 20 -25 18 -9 35 -14 37 -11 3 3 -1 5 -9 5
-12 0 -12 2 0 9 8 5 20 7 28 4 7 -3 13 -1 13 5 0 19 -65 28 -89 13z"/>
<path d="M1860 350 c0 -5 5 -10 10 -10 6 0 10 5 10 10 0 6 -4 10 -10 10 -5 0
-10 -4 -10 -10z"/>
<path d="M2440 351 c8 -6 28 -11 43 -11 16 0 26 -4 22 -10 -3 -5 -2 -10 3 -10
6 0 12 7 16 15 3 10 -1 15 -13 15 -10 0 -34 3 -52 6 -26 4 -30 3 -19 -5z"/>
<path d="M1560 320 c0 -6 7 -10 15 -10 8 0 15 2 15 4 0 2 -7 6 -15 10 -8 3
-15 1 -15 -4z"/>
<path d="M1656 321 c-4 -5 3 -7 14 -4 23 6 26 13 6 13 -8 0 -17 -4 -20 -9z"/>
<path d="M2530 325 c0 -2 9 -9 20 -15 16 -9 18 -8 14 5 -5 13 -34 22 -34 10z"/>
<path d="M2530 290 c0 -5 7 -10 16 -10 8 0 12 5 9 10 -3 6 -10 10 -16 10 -5 0
-9 -4 -9 -10z"/>
<path d="M3495 270 c11 -5 29 -9 40 -9 l20 0 -20 9 c-11 5 -29 9 -40 9 l-20 0
20 -9z"/>
<path d="M1663 263 c9 -2 23 -2 30 0 6 3 -1 5 -18 5 -16 0 -22 -2 -12 -5z"/>
<path d="M2548 253 c6 -2 18 -2 25 0 6 3 1 5 -13 5 -14 0 -19 -2 -12 -5z"/>
<path d="M3385 240 c3 -5 13 -10 21 -10 8 0 14 5 14 10 0 6 -9 10 -21 10 -11
0 -17 -4 -14 -10z"/>
<path d="M2983 233 c9 -2 23 -2 30 0 6 3 -1 5 -18 5 -16 0 -22 -2 -12 -5z"/>
<path d="M3045 231 c-3 -5 5 -17 17 -25 15 -11 24 -12 29 -5 4 7 9 4 14 -10 3
-11 11 -21 17 -21 5 0 21 -9 35 -20 14 -11 37 -20 52 -21 23 0 24 -1 6 -9 -18
-7 -19 -8 -2 -15 23 -10 50 2 41 17 -4 7 6 0 22 -17 25 -27 29 -28 32 -11 9
42 -99 93 -136 64 -9 -7 -14 -9 -11 -5 11 13 -34 55 -66 63 -26 6 -27 8 -10
15 17 7 16 8 -7 8 -15 1 -29 -3 -33 -8z"/>
<path d="M3193 233 c9 -2 25 -2 35 0 9 3 1 5 -18 5 -19 0 -27 -2 -17 -5z"/>
<path d="M3145 210 c3 -5 11 -10 16 -10 6 0 7 5 4 10 -3 6 -11 10 -16 10 -6 0
-7 -4 -4 -10z"/>
<path d="M1325 170 c-3 -5 1 -10 9 -10 9 0 16 5 16 10 0 6 -4 10 -9 10 -6 0
-13 -4 -16 -10z"/>
<path d="M1623 172 c-47 -5 -41 -22 7 -22 22 0 40 4 40 9 0 14 -11 17 -47 13z"/>
<path d="M3310 155 c-9 -10 -9 -15 -1 -15 6 0 11 4 11 9 0 5 17 8 38 6 21 -2
45 1 53 6 9 6 -3 9 -37 9 -34 0 -56 -5 -64 -15z"/>
<path d="M1395 150 c4 -6 11 -8 16 -5 14 9 11 15 -7 15 -8 0 -12 -5 -9 -10z"/>
<path d="M3330 131 c0 -5 16 -15 36 -21 24 -8 32 -15 24 -20 -17 -11 -2 -32
19 -28 10 2 25 -3 34 -10 20 -17 105 -26 88 -9 -18 18 -13 23 24 19 23 -3 35
0 35 8 0 9 -14 11 -52 7 -32 -4 -59 -2 -68 4 -13 9 -12 10 3 5 11 -3 16 -2 12
4 -8 13 -48 13 -63 0 -6 -6 -10 -7 -7 -4 6 9 -34 39 -62 48 -13 4 -23 3 -23
-3z"/>
<path d="M1382 117 c-7 -8 -6 -16 4 -25 8 -7 14 -11 15 -10 10 38 0 58 -19 35z"/>
<path d="M1746 123 c7 -2 14 -13 17 -24 7 -25 39 -25 62 1 18 20 18 20 -16 19
-19 -1 -43 1 -54 3 -11 3 -15 3 -9 1z"/>
<path d="M2750 115 c0 -8 4 -15 10 -15 5 0 7 7 4 15 -4 8 -8 15 -10 15 -2 0
-4 -7 -4 -15z"/>
<path d="M2046 109 c-16 -4 -33 -6 -37 -3 -4 2 -10 0 -14 -6 -3 -5 0 -10 8
-10 8 0 17 -7 21 -15 8 -21 66 -19 96 5 22 17 23 19 7 26 -10 3 -21 4 -24 0
-3 -3 -11 -2 -17 3 -6 4 -24 4 -40 0z"/>
<path d="M1918 103 c7 -3 16 -2 19 1 4 3 -2 6 -13 5 -11 0 -14 -3 -6 -6z"/>
<path d="M2230 101 c0 -2 13 -17 30 -32 16 -16 24 -29 16 -29 -7 0 -21 -9 -31
-20 -18 -20 -17 -20 18 -20 19 0 38 6 40 13 4 9 6 9 6 0 1 -9 23 -13 79 -12
42 1 65 4 50 6 -33 5 -34 12 -7 47 l20 26 -27 11 c-26 9 -194 19 -194 10z"/>
<path d="M1416 84 c-9 -24 -4 -24 18 -3 16 16 17 19 4 19 -9 0 -19 -7 -22 -16z"/>
<path d="M1616 91 c-4 -7 -5 -15 -2 -18 9 -9 19 4 14 18 -4 11 -6 11 -12 0z"/>
<path d="M1650 90 c0 -12 47 -12 75 0 15 6 8 9 -27 9 -27 1 -48 -3 -48 -9z"/>
<path d="M1860 90 c-12 -8 -10 -10 8 -10 13 0 20 4 17 10 -7 12 -6 12 -25 0z"/>
<path d="M2572 87 c32 -30 70 -49 81 -38 7 7 -4 16 -37 31 -56 23 -62 25 -44
7z"/>
<path d="M3707 76 c12 -5 24 -17 26 -25 3 -10 5 -7 6 7 1 13 -5 22 -13 22 -8
0 -20 1 -28 3 -7 2 -3 -1 9 -7z"/>
<path d="M3600 60 c0 -5 5 -10 10 -10 6 0 10 5 10 10 0 6 -4 10 -10 10 -5 0
-10 -4 -10 -10z"/>
<path d="M2705 33 c0 -28 1 -28 70 -29 39 -1 53 1 33 3 -30 3 -38 9 -38 24 0
12 -7 19 -19 19 -11 0 -26 2 -33 5 -10 4 -14 -3 -13 -22z"/>
<path d="M2966 51 c-4 -5 4 -17 16 -25 13 -10 17 -16 9 -16 -8 0 -12 -2 -9 -5
3 -3 12 -3 21 0 20 8 30 45 12 45 -7 0 -20 3 -28 6 -8 3 -18 1 -21 -5z"/>
<path d="M3650 48 c0 -4 -8 -8 -17 -9 -10 -1 -2 -5 17 -9 33 -8 69 4 54 19 -9
9 -54 8 -54 -1z"/>
<path d="M1585 40 c-3 -5 -1 -10 4 -10 6 0 11 5 11 10 0 6 -2 10 -4 10 -3 0
-8 -4 -11 -10z"/>
<path d="M1960 36 c0 -9 5 -16 10 -16 6 0 10 4 10 9 0 6 -4 13 -10 16 -5 3
-10 -1 -10 -9z"/>
<path d="M1810 26 c0 -8 7 -17 16 -20 27 -10 113 -6 120 6 5 7 2 9 -9 5 -9 -3
-18 -1 -21 6 -3 9 -7 9 -14 -1 -7 -10 -14 -10 -38 3 -36 19 -54 19 -54 1z"/>
<path d="M2890 30 c0 -13 27 -13 35 0 3 6 -3 10 -14 10 -12 0 -21 -4 -21 -10z"/>
<path d="M3258 33 c7 -3 16 -2 19 1 4 3 -2 6 -13 5 -11 0 -14 -3 -6 -6z"/>
<path d="M3794 25 c-4 -8 -11 -12 -17 -8 -6 3 -7 1 -3 -5 4 -7 19 -12 34 -12
23 1 25 2 9 11 -9 6 -15 14 -12 20 4 5 4 9 0 9 -3 0 -8 -7 -11 -15z"/>
<path d="M1683 23 c-40 -8 -25 -24 20 -21 23 2 42 8 42 13 0 11 -29 15 -62 8z"/>
<path d="M2490 15 c-10 -12 -9 -15 6 -15 11 0 26 4 34 10 9 5 19 5 27 -1 13
-11 33 -4 33 12 0 15 -86 11 -100 -6z"/>
<path d="M3300 26 c0 -2 7 -7 16 -10 8 -3 12 -2 9 4 -6 10 -25 14 -25 6z"/>
<path d="M2893 3 c9 -2 23 -2 30 0 6 3 -1 5 -18 5 -16 0 -22 -2 -12 -5z"/>
<path d="M3038 3 c7 -3 16 -2 19 1 4 3 -2 6 -13 5 -11 0 -14 -3 -6 -6z"/>
</g>
</svg>
